<?xml version="1.0" standalone="no"?>
<!DOCTYPE svg PUBLIC "-//W3C//DTD SVG 20010904//EN"
 "http://www.w3.org/TR/2001/REC-SVG-20010904/DTD/svg10.dtd">
<svg version="1.0" xmlns="http://www.w3.org/2000/svg"
 width="992.000000pt" height="992.000000pt" viewBox="0 0 992.000000 992.000000"
 preserveAspectRatio="xMidYMid meet">
<metadata>
Created by potrace 1.14, written by Peter Selinger 2001-2017
</metadata>
<g transform="translate(0.000000,992.000000) scale(0.100000,-0.100000)"
fill="#000000" stroke="none">
<path d="M5977 9875 c-15 -31 -82 -248 -92 -300 -3 -11 -14 -56 -25 -100 -19
-73 -54 -223 -66 -285 -23 -121 -32 -169 -40 -220 -3 -19 -7 -42 -9 -50 -3 -8
-7 -35 -10 -60 -3 -25 -10 -67 -15 -95 -5 -27 -12 -75 -16 -105 -3 -30 -7 -57
-9 -60 -1 -3 -6 -30 -9 -61 -4 -31 -8 -65 -10 -75 -2 -11 -7 -46 -10 -79 -4
-33 -9 -67 -11 -75 -3 -8 -7 -35 -9 -60 -8 -71 -16 -133 -21 -160 -3 -14 -7
-54 -10 -90 -3 -36 -8 -83 -12 -105 -3 -22 -7 -56 -8 -75 -6 -73 -17 -184 -30
-290 -2 -19 -7 -66 -10 -105 -4 -38 -9 -86 -11 -105 -2 -19 -6 -62 -9 -95 -3
-33 -7 -89 -10 -125 -11 -117 -16 -191 -30 -380 -2 -30 -7 -89 -10 -130 -3
-41 -8 -114 -10 -162 -3 -49 -7 -123 -10 -165 -3 -43 -8 -127 -11 -188 -10
-178 -12 -220 -13 -220 -1 0 -4 -63 -7 -140 -4 -121 -10 -210 -14 -210 -1 0
-5 -106 -15 -380 -19 -546 -25 -1295 -12 -1665 4 -113 9 -284 12 -380 2 -96 7
-238 9 -315 3 -77 8 -223 11 -325 9 -305 15 -434 19 -456 2 -12 7 -59 11 -105
3 -46 8 -97 11 -114 2 -16 6 -50 8 -75 13 -122 18 -159 28 -210 6 -30 12 -68
14 -85 11 -110 71 -317 84 -294 9 13 5 136 -5 198 -4 20 -8 97 -10 171 -2 74
-7 221 -10 325 -3 105 -8 262 -10 350 -7 254 -14 505 -20 705 -3 102 -8 259
-10 350 -3 91 -8 260 -11 375 -9 264 -9 977 0 1280 7 246 12 441 21 840 9 377
13 504 18 512 3 5 8 73 11 153 7 146 13 260 21 380 3 36 7 103 10 150 3 47 8
110 10 140 3 30 7 93 10 140 9 131 22 306 30 390 2 25 7 79 10 120 3 41 8 98
11 125 3 28 7 66 9 85 6 66 17 185 20 210 2 14 6 54 10 90 8 75 10 94 19 170
3 30 9 78 12 105 3 28 7 61 9 75 14 116 18 147 20 160 1 8 6 40 10 70 4 30 9
64 11 75 3 11 7 40 10 65 9 73 13 95 15 98 3 3 5 14 13 72 9 60 12 78 21 130
4 19 9 46 11 60 3 14 16 81 31 150 14 69 27 136 29 150 2 14 21 94 42 178 38
152 41 193 9 127z"/>
<path d="M5809 9853 c-6 -16 -21 -66 -34 -113 -34 -124 -105 -397 -109 -417
-1 -10 -6 -25 -9 -33 -3 -8 -9 -33 -13 -55 -16 -87 -17 -93 -27 -140 -10 -41
-17 -75 -23 -105 -2 -14 -10 -50 -16 -80 -6 -30 -12 -65 -13 -77 -2 -12 -6
-35 -10 -52 -6 -27 -9 -44 -20 -121 -2 -14 -6 -38 -9 -55 -7 -42 -14 -91 -21
-150 -4 -27 -9 -58 -12 -68 -5 -20 -6 -26 -18 -127 -4 -36 -9 -72 -10 -82 -2
-9 -6 -38 -10 -65 -4 -26 -8 -59 -10 -73 -12 -85 -28 -199 -30 -225 -2 -16 -6
-42 -8 -56 -3 -14 -8 -57 -12 -95 -4 -38 -9 -78 -11 -89 -2 -10 -7 -49 -10
-85 -4 -36 -8 -76 -9 -90 -2 -14 -6 -56 -9 -95 -4 -38 -8 -83 -11 -100 -2 -16
-7 -64 -10 -105 -4 -41 -9 -88 -11 -105 -2 -16 -6 -55 -9 -85 -3 -30 -7 -73
-10 -95 -12 -119 -19 -216 -20 -262 0 -29 -2 -53 -5 -53 -3 0 -5 -15 -6 -33
-1 -28 -11 -165 -19 -267 -3 -31 -13 -172 -20 -270 -1 -19 -5 -89 -9 -155 -4
-66 -9 -145 -11 -175 -2 -30 -7 -118 -11 -195 -4 -77 -8 -158 -9 -180 -13
-180 -22 -1902 -11 -2005 3 -36 8 -83 11 -105 2 -22 7 -67 10 -100 3 -33 7
-80 10 -105 2 -25 7 -79 10 -120 4 -41 8 -86 11 -100 2 -14 6 -61 10 -105 3
-44 8 -91 10 -105 2 -14 6 -57 9 -97 3 -39 9 -83 14 -96 6 -14 7 -27 4 -30 -3
-3 4 -5 15 -4 19 1 21 6 16 52 -5 53 -10 218 -19 630 -3 138 -8 349 -11 470
-3 121 -5 240 -4 265 0 25 3 185 5 355 3 171 7 362 9 425 3 63 7 187 11 275 3
88 8 221 10 295 3 74 7 205 10 290 4 85 8 207 10 270 2 63 6 187 10 275 11
308 16 470 16 483 -3 35 -2 65 3 144 3 48 8 108 11 135 3 26 7 77 10 113 3 36
8 88 11 115 2 28 6 73 9 100 2 28 7 79 10 115 4 36 8 85 10 110 8 97 15 177
19 215 3 22 8 74 11 115 4 41 8 91 10 110 2 19 7 71 11 115 3 44 7 82 9 85 2
3 6 39 10 80 4 41 9 84 12 95 2 11 6 44 8 72 3 29 7 65 9 80 3 16 8 53 11 83
3 30 8 66 10 80 2 14 7 50 10 80 3 30 11 84 16 120 6 36 12 85 15 110 2 25 7
56 9 70 3 14 7 45 10 70 3 25 8 52 10 60 2 8 7 33 10 55 3 23 8 52 10 65 3 14
7 36 10 50 2 14 9 50 15 80 6 30 13 66 16 80 3 14 16 84 30 157 14 73 27 145
30 160 3 15 12 59 20 98 9 38 17 77 19 85 1 8 8 35 15 60 7 25 14 54 16 65 2
11 10 42 18 68 15 50 3 66 -15 20z"/>
<path d="M5933 8933 c-17 -3 -23 -12 -24 -31 -1 -15 -3 -38 -4 -52 -1 -14 -5
-61 -9 -105 -4 -44 -9 -100 -12 -125 -3 -25 -7 -70 -10 -100 -5 -76 -14 -175
-20 -240 -6 -56 -7 -71 -18 -215 -4 -44 -9 -100 -11 -125 -3 -25 -7 -74 -10
-110 -4 -36 -8 -85 -10 -110 -3 -25 -7 -76 -10 -115 -4 -38 -8 -90 -10 -115
-4 -45 -10 -111 -20 -225 -5 -57 -10 -117 -20 -230 -2 -27 -7 -88 -10 -135 -3
-47 -8 -114 -10 -150 -3 -36 -7 -101 -10 -145 -3 -44 -8 -107 -10 -140 -2 -33
-7 -100 -10 -150 -4 -49 -8 -115 -10 -145 -5 -68 -19 -485 -30 -929 -3 -118
-9 -219 -12 -225 -4 -7 -3 -8 4 -1 9 9 28 74 39 135 3 14 12 52 21 85 14 57
17 70 27 113 2 9 9 37 16 62 7 25 14 54 16 65 2 11 7 34 11 50 4 17 7 32 8 35
0 3 6 25 13 50 11 41 42 170 93 389 11 47 22 101 25 120 7 47 47 129 80 165
57 60 142 80 224 51 100 -35 290 -143 391 -222 30 -23 176 -168 210 -208 101
-121 219 -339 278 -513 83 -248 107 -540 66 -792 -2 -14 -6 -38 -9 -55 -9 -65
-71 -287 -88 -319 -5 -10 -16 -35 -23 -55 -27 -76 -117 -250 -185 -357 -8 -13
-47 -74 -87 -136 -121 -191 -189 -335 -210 -443 -10 -50 -10 -228 0 -274 20
-92 116 -321 138 -329 5 -2 9 -8 9 -13 0 -5 18 -32 41 -61 22 -29 66 -87 97
-128 31 -41 63 -81 70 -88 6 -7 12 -20 12 -28 0 -8 4 -14 9 -14 15 0 108 -147
158 -250 62 -128 135 -339 148 -426 2 -16 9 -54 14 -84 17 -91 6 -370 -19
-480 -11 -52 -23 -106 -26 -119 -8 -36 -44 -139 -79 -221 -32 -77 -195 -344
-266 -436 -43 -56 -174 -191 -234 -241 -56 -46 -33 -41 60 15 165 98 275 189
448 372 48 50 138 179 190 270 55 98 129 305 143 398 2 15 8 52 13 82 9 53 7
360 -2 410 -3 14 -8 48 -12 75 -3 28 -15 86 -26 130 -11 44 -22 89 -24 99 -3
11 -25 81 -49 155 -104 316 -116 445 -52 570 18 33 13 37 -31 20 -30 -11 -99
-23 -123 -20 -8 1 -24 1 -35 1 -86 0 -223 66 -299 144 -91 94 -132 234 -104
358 19 87 102 262 161 342 27 37 264 368 274 383 53 78 70 106 110 182 47 90
69 165 102 349 28 153 35 249 36 437 0 272 -26 418 -117 665 -35 94 -203 391
-238 420 -3 3 -17 21 -30 40 -40 57 -209 222 -285 278 -38 28 -74 55 -80 59
-109 86 -306 190 -539 285 -94 37 -180 75 -191 82 -20 13 -21 22 -19 103 2 80
11 311 19 488 4 85 15 273 21 335 2 25 6 90 10 145 10 150 19 278 30 395 2 25
6 77 9 115 3 39 7 93 10 120 2 28 7 84 10 125 3 41 8 100 11 130 3 30 7 82 9
115 2 33 6 94 10 136 5 74 5 77 -17 83 -25 6 -69 6 -105 -1z"/>
<path d="M4568 5354 c-2 -1 -28 -5 -59 -8 -31 -4 -67 -9 -80 -11 -13 -3 -60
-12 -103 -20 -154 -29 -378 -105 -551 -186 -38 -18 -72 -33 -75 -34 -7 -1 -91
-47 -115 -62 -11 -7 -27 -16 -35 -20 -18 -9 -158 -102 -184 -123 -166 -133
-383 -338 -486 -460 -30 -36 -58 -67 -61 -70 -32 -29 -250 -410 -234 -410 2 0
-11 -33 -29 -72 -33 -72 -74 -183 -82 -223 -2 -11 -7 -33 -10 -49 -2 -16 -7
-33 -9 -37 -3 -4 -7 -24 -10 -45 -3 -22 -9 -64 -14 -94 -20 -119 -6 -364 28
-514 25 -105 106 -324 147 -395 45 -79 188 -286 214 -311 3 -3 21 -25 39 -48
50 -64 182 -194 287 -281 140 -117 157 -129 192 -146 17 -9 32 -20 32 -25 0
-6 5 -10 11 -10 6 0 23 -8 37 -19 49 -34 311 -171 327 -171 3 0 24 -9 48 -20
43 -20 261 -96 300 -104 12 -3 55 -14 95 -25 40 -10 75 -19 77 -20 17 -1 104
-18 135 -26 8 -2 23 -4 33 -4 14 -1 17 -6 12 -22 -4 -12 -8 -27 -9 -33 -16
-79 -101 -282 -164 -394 -23 -41 -42 -76 -42 -78 0 -10 -182 -266 -210 -294
-8 -9 -24 -29 -35 -44 -20 -28 -32 -44 -80 -101 -46 -55 -26 -46 73 32 252
201 380 335 527 553 126 187 247 467 280 647 3 16 7 39 10 53 6 29 16 93 21
135 9 66 11 294 4 350 -5 33 -11 80 -13 105 -17 141 -64 296 -140 460 -30 65
-119 199 -212 319 -174 225 -195 260 -234 385 -36 118 -44 236 -24 369 12 85
64 259 85 285 6 6 7 12 2 12 -5 0 -4 4 1 8 6 4 28 42 49 84 114 225 383 486
613 594 34 16 62 32 62 36 1 9 -59 1 -134 -19 -195 -50 -494 -272 -665 -493
-19 -25 -37 -47 -40 -50 -3 -3 -30 -43 -59 -89 -94 -148 -159 -302 -186 -446
-14 -68 -15 -87 -19 -190 -3 -87 0 -125 18 -245 11 -74 48 -184 94 -280 28
-59 112 -201 124 -210 4 -3 19 -32 35 -65 38 -84 38 -158 0 -208 -15 -19 -27
-40 -27 -46 0 -5 17 -13 38 -17 65 -12 104 -34 162 -92 77 -77 126 -183 156
-337 10 -48 11 -259 2 -333 -15 -134 -19 -158 -25 -187 -8 -37 -10 -45 -12
-70 -3 -43 -16 -50 -58 -33 -235 98 -511 235 -521 260 -2 4 -8 8 -14 8 -11 0
-120 74 -152 103 -11 9 -23 17 -26 17 -4 0 -18 9 -31 21 -13 12 -46 40 -73 63
-89 75 -201 193 -282 296 -58 73 -234 332 -234 344 0 3 -12 22 -26 43 -14 21
-43 76 -65 123 -53 111 -54 113 -78 195 -68 231 -88 350 -85 495 2 98 11 224
19 250 2 8 7 29 10 45 13 76 18 95 42 165 34 100 120 287 195 420 165 297 499
645 798 831 174 108 447 233 617 282 82 23 106 34 78 34 -8 0 -16 -1 -17 -3z"/>
</g>
</svg>
