<?xml version="1.0" encoding="UTF-8"?><svg id="Layer_1" xmlns="http://www.w3.org/2000/svg" width="126.82" height="247.62" viewBox="0 0 126.82 247.62"><path d="M88.87,1.01c-.69,1.02-2.25,7.27-2.7,8.92-2.53,9.36-4.07,20.39-5.38,30.17-1.04,6.87-1.57,13.12-2.26,19.61-1.71,15.91-2.64,32.9-3.43,48.87-.49,1.34-1.36,38.97-1.14,42.96,0,1.32,.04,1.48,.07,2.67l1.27,41.33c.46,5.8,1.76,20.99,4.08,25.11,.47-1.54-.23-5.82-.35-7.83l-1.83-64.92c-.01-1.55-.04-2.31-.02-3.76,.02-2.75,.08-5,.08-7.72l.93-37.77v-1.59c-.1-2.88,.12-1.55,.16-2.91,.03-1-.2-.52,.2-1.51,.23-3.82,.34-7.92,.61-11.79,.8-11.75,1.56-23.15,2.78-34.8,1.73-16.53,3.47-29.2,7.48-45.4l.14-.65c-.3,.28-.42,.48-.69,1.01" fill="#fff" fill-rule="evenodd"/><path d="M80.68,16.31c-.23,1.08-.33,1.84-.57,2.87-2.29,9.6-4.22,25.21-5.59,35.11-.86,6.24-1.23,11.64-1.9,17.55-.85,7.42-1.43,15.76-2.05,23.38-.18,2.21-.19,3.83-.4,6.02l-1,17.64-.49,44.45,2.52,26.62c.19,.59,.35,.77,.35,1.47l.9-.15-.26-1.7c-.02-.8-.04-.91-.1-1.66-.08-1.03-.02-2-.1-3.15l-.58-25.75c-.03-2.14-.01-3.93-.01-6.26,0-2.23,.04-4.07,.03-6.47l2.01-57.19c-.34-1.24-.19,.09-.01-1.9l.05-1.24c0-.06,0-.15,0-.21l2.82-31.35,1.6-13.09c.67-5.46,1.88-14.56,2.95-19.74,1.3-6.29,2-11.27,3.74-17.99,.18-.69,.51-1.71,.67-2.46,.02-.66-.04-.4-.5,.24-.43,.29-3.65,13.38-4.07,14.98" fill="#fff" fill-rule="evenodd"/><path d="M85.19,47.02l1.98-22.24c1.91-.24,1.37-.64,3.73,0-1.67,21.54-3.32,37.92-3.69,56.7,2.94,2.17,11.37,3.1,22.67,12.45,1.66,1.38,3.08,3.02,4.54,4.57l.24,.26s.08,.1,.11,.14l1.99,2.78c4.71,6.78,7.6,14.1,7.99,23.28,.25,5.96-.52,12.5-1.92,18.14-2.64,10.63-19.66,22.67-14.46,32.99,2.56,5.07,9.22,7.75,14.37,5.21-.64,1.93-1.18,2.03-1.29,4.71-.07,1.92,.32,3.71,.7,5.3,.76,3.21,1.96,5.99,2.81,9.12,4.34,16.04,1.21,29.18-10.74,40.24-1.81,1.67-8.59,6.9-10.78,6.93,1.19,.15,6.75-5.75,7.93-7.38,.34-.47,.43-.69,.71-1.05l4.49-7.03c4.26-8.24,5.94-18.82,3.21-27.83-1.43-4.73-3.32-9.31-6.13-13.12-.76-1.03-1.1-1.47-1.69-2.36-2.06-3.07-4.4-5.12-6.37-9.17-3.1-6.39-3.49-11.67-.25-18.1,1.82-3.61,3.9-6.58,5.96-9.85,8.9-14.16,10.58-31.25,2.32-45.9-2.17-3.82-5.33-8.26-9.96-11.48-3.77-2.86-7.33-4.23-7.33-4.23-5.99-3.34-8.61,2.58-8.86,3.86-.94,4.93-4.41,18.63-6.91,29.18l.83-27.76,1.55-22.57,2.27-25.8Z" fill="#fff" fill-rule="evenodd"/><path d="M52.36,202.97c-.06,1.94-.29,4.63-.66,7.09-.38,2.46-.92,4.69-1.37,6.31-.45,1.62-.81,2.63-1.4,4.08-.59,1.45-1.42,3.33-2.43,5.23-1,1.89-2.18,3.8-3.46,5.62s-2.65,3.56-3.85,5.06c-1.2,1.5-2.22,2.77-2.66,3.37-.44,.6-.3,.53,1.2-.62,1.5-1.15,4.35-3.39,6.72-5.61,2.37-2.22,4.24-4.41,5.94-6.71,1.7-2.3,3.23-4.7,4.48-7.11,1.25-2.41,2.23-4.83,2.92-6.9,.7-2.07,1.11-3.78,1.46-5.62,.34-1.83,.61-3.79,.74-5.66,.14-1.87,.14-3.67,0-5.66s-.43-4.17-.84-6.16c-.41-1.99-.93-3.8-1.61-5.61-.68-1.8-1.51-3.61-2.58-5.41-1.07-1.81-2.38-3.62-3.72-5.36-1.34-1.74-2.71-3.41-3.63-4.65-.91-1.24-1.37-2.04-1.83-3.13-.46-1.09-.93-2.46-1.24-3.8-.31-1.34-.46-2.65-.5-3.91-.04-1.26,.03-2.48,.23-3.76,.19-1.29,.51-2.65,.97-4.07,.46-1.42,1.06-2.91,1.72-4.28,.66-1.36,1.38-2.6,1.78-3.29,.4-.68,.48-.8,.91-1.38,.43-.58,1.21-1.61,2.04-2.59,.83-.98,1.71-1.91,2.65-2.81,.95-.9,1.97-1.78,3.09-2.64,1.12-.86,2.32-1.69,3.44-2.39s2.15-1.24,2.92-1.59,1.26-.5,1.24-.56c-.03-.06-.57-.02-1.04,.02-.46,.04-.84,.09-1.29,.16-.44,.08-.96,.18-1.58,.35-.62,.17-1.34,.41-2.23,.81-.89,.4-1.94,.95-2.97,1.56-1.03,.61-2.04,1.28-3.07,2.03-1.03,.75-2.07,1.6-3.17,2.59-1.1,1-2.27,2.15-3.37,3.39-1.11,1.23-2.15,2.54-3.1,3.89-.95,1.35-1.8,2.73-2.53,4.09-.73,1.36-1.33,2.69-1.81,3.91-.47,1.22-.81,2.34-1.1,3.67-.3,1.33-.55,2.87-.68,4.28-.13,1.41-.14,2.69-.02,4.1,.12,1.41,.36,2.94,.68,4.37,.33,1.43,.74,2.75,1.2,3.98,.47,1.22,1,2.35,1.69,3.57,.69,1.23,1.55,2.56,2.21,3.59,.66,1.04,1.12,1.78,1.45,2.8,.32,1.02,.51,2.33,.11,3.34-.4,1.01-1.4,1.72-1.26,2.04,.14,.32,1.42,.25,2.71,.85,1.29,.6,2.6,1.86,3.52,3.12,.92,1.26,1.47,2.51,1.88,3.79,.41,1.28,.69,2.57,.88,3.82,.19,1.25,.28,2.46,.22,4.4" fill="#fff" fill-rule="evenodd"/><path d="M54.9,215.53c-.74,.02-3.96-.45-6.87-1.02-2.91-.57-5.51-1.24-7.92-1.99-2.41-.74-4.64-1.56-6.91-2.55-2.27-.98-4.58-2.13-6.78-3.4-2.2-1.27-4.28-2.66-6.36-4.28-2.08-1.62-4.15-3.46-5.78-5.06-1.63-1.59-2.81-2.92-3.92-4.29-1.1-1.37-2.12-2.77-3.08-4.13-.96-1.36-1.85-2.68-2.62-4.12-.78-1.44-1.43-3.02-2.03-4.62-.6-1.6-1.15-3.24-1.57-4.95-.42-1.71-.71-3.5-.88-5.31-.17-1.81-.22-3.64-.13-5.4,.09-1.77,.33-3.47,.69-5.28,.36-1.8,.85-3.69,1.43-5.37,.58-1.68,1.26-3.14,2.08-4.94,.82-1.8,1.77-3.93,3.09-6.11,1.32-2.19,3-4.43,4.78-6.44,1.78-2.01,3.65-3.78,5.41-5.43,1.77-1.64,3.43-3.16,5.23-4.59,1.81-1.43,3.76-2.76,5.79-3.96,2.03-1.2,4.14-2.25,6.37-3.23,2.23-.98,4.59-1.88,6.89-2.61,2.3-.73,4.56-1.29,6.71-1.69,2.15-.41,4.2-.66,5.44-.81,1.23-.16,1.65-.21,.77,.04-.88,.26-3.06,.84-5.01,1.51-1.95,.67-3.68,1.43-5.49,2.27-1.81,.84-3.71,1.77-5.66,2.88-1.95,1.11-3.96,2.4-5.89,3.9-1.94,1.5-3.81,3.21-5.53,4.88-1.73,1.67-3.31,3.29-4.92,5.2-1.61,1.91-3.24,4.1-4.88,6.88-1.64,2.78-3.28,6.14-4.37,8.67-1.09,2.54-1.61,4.25-2,6.08-.39,1.83-.65,3.79-.79,5.89s-.16,4.34,.1,6.44c.25,2.1,.78,4.06,1.34,6.09,.56,2.03,1.16,4.14,2.21,6.42,1.05,2.28,2.56,4.72,4.02,7,1.46,2.28,2.89,4.39,4.47,6.41,1.59,2.01,3.34,3.93,5.03,5.56,1.69,1.63,3.32,2.98,5.04,4.24,1.72,1.26,3.52,2.45,5.42,3.57,1.9,1.12,3.89,2.18,5.72,3.07,1.83,.88,3.49,1.59,4.9,2.15,1.41,.56,2.57,.96,4.01,1.42,1.45,.46,3.19,.98,2.45,1" fill="#fff" fill-rule="evenodd"/></svg>