<svg height="266.63" width="318.92" xmlns="http://www.w3.org/2000/svg" xmlns:xlink="http://www.w3.org/1999/xlink"><clipPath id="a"><path d="m0 0h318.92v266.63h-318.92z"/></clipPath><g clip-path="url(#a)"><path d="m181.07 152.42c3.42 0 5.72-1.19 5.72-1.19l.18-.27c.45-2.08 1.37-4.76 1.37-4.76l-1.28.12c-1.13 3.25-2.92 4.76-5.54 4.76-3.54 0-5.66-2.95-5.66-7.41 0-5.57 3.1-9.29 7.47-9.29 2.62 0 3.9.83 3.9 2.5 0 .6-.27 1.76-.27 1.76l1.28-.12c.51-2.68 1.34-4.88 1.34-4.88l-.09-.18s-2.8-.68-5.15-.68c-6.28 0-11.08 5.09-11.08 11.76 0 4.82 3.13 7.89 7.8 7.89m16.24-.1c4.85 0 8.66-3.99 8.66-9.14 0-3.72-2.47-6.22-6.1-6.22-4.82 0-8.55 3.99-8.55 9.14 0 3.75 2.44 6.22 5.99 6.22m.62-1.37c-2.53 0-4.2-2.08-4.2-5.39 0-4.14 2.29-7.03 5.42-7.03 2.59 0 4.29 2.11 4.29 5.39 0 4.2-2.29 7.03-5.51 7.03m13.34 1.1c2.32 0 6.31.21 6.31.21l.15-.15c.57-2.41 1.25-4.61 1.25-4.61a.23.23 0 0 1 -.06-.15l-1.28.15c-.8 2.89-1.37 3.33-3.99 3.33-1.4 0-1.73-.21-1.73-1.1 0-.8.95-6.94 1.43-9.47.36-1.76.48-1.85 1.88-2.05l.24-1.19s-1.73.24-2.74.24c-.95 0-2.62-.09-2.77-.09l-.3 1.1c.03.06.06.09.06.12 0 0 .51-.03.77-.03.65 0 .83.21.71 1.22l-1.19 9.56c-.18 1.34-.6 1.79-1.82 1.97l-.33 1.19s1.55-.24 3.39-.24m12.71-.01c2.32 0 6.31.21 6.31.21l.15-.15c.57-2.41 1.25-4.61 1.25-4.61a.23.23 0 0 1 -.06-.15l-1.28.15c-.8 2.89-1.37 3.33-3.99 3.33-1.4 0-1.73-.21-1.73-1.1 0-.8.95-6.94 1.43-9.47.36-1.76.48-1.85 1.88-2.05l.24-1.19s-1.73.24-2.74.24c-.95 0-2.62-.09-2.77-.09l-.3 1.1c.03.06.06.09.06.12 0 0 .51-.03.77-.03.65 0 .83.21.71 1.22l-1.19 9.56c-.18 1.34-.6 1.79-1.82 1.97l-.33 1.19s1.55-.24 3.39-.24m13.3-2.12c0-.77.36-2.35.68-4.67.39-.06 1.13-.15 1.82-.15 1.25 0 3.22.06 3.22.06l.51-1.52-.09-.12s-2.02.24-2.86.24c-.68 0-1.85-.03-2.35-.03l.71-4.32c.12-.8.24-.86 1.67-.86 2.71 0 3.3.12 3.3 1.16 0 .57-.21 1.43-.21 1.43l1.34-.09c.42-2.14 1.01-3.96 1.01-3.96l-.06-.15c-1.55.21-3.42.3-7.09.3-1.49 0-3.48-.09-3.48-.09l-.3 1.1.06.12s.51-.03.77-.03c.68 0 .8.24.68 1.25l-1.19 9.53c-.18 1.34-.62 1.79-2.02 1.96l-.3 1.19s1.61-.24 3.45-.24c2.38 0 7.12.15 7.12.15l.15-.15c.48-2.03 1.13-3.99 1.13-3.99l-.06-.15-1.25.12c-.68 2.5-1.16 2.8-4.71 2.8-1.28 0-1.67-.09-1.67-.89m17.14 2.38c3.07 0 5.21-1.04 5.21-1.04l.18-.21s-.03-.48-.03-.71c0-.45.21-2.05.36-2.92.15-1.07.51-1.73.98-2.02l-.03-.6s-1.07.12-2.08.12c-1.37 0-3.04-.06-3.01-.06l-.39 1.22.06.12h1.55c1.01 0 1.19.21 1.07 1.22l-.33 2.74s-1.28.83-3.1.83c-2.74 0-4.35-2.14-4.35-5.48 0-4.32 2.35-7.06 5.75-7.06 2.05 0 3.04.63 3.04 1.85 0 .48-.21 1.4-.21 1.4l1.31-.12c.45-2.17 1.13-3.9 1.13-3.9l-.09-.18s-2.41-.57-4.35-.57c-5.21 0-9.05 3.9-9.05 9.2 0 3.81 2.53 6.16 6.37 6.16m15.28-12.82c.15-.86.51-1.13 1.79-1.28l.27-1.19s-1.79.24-2.86.24c-.98 0-2.77-.09-2.89-.09l-.3 1.1c0 .06.03.09.03.12 0 0 .62-.03.95-.03.71 0 .83.27.71 1.22l-1.19 9.59c-.15 1.28-.62 1.73-2.08 1.99l-.3 1.16s1.64-.27 2.86-.27c1.1 0 3.16.06 3.16.06l.36-1.16-.06-.09s-.62.06-1.19.06c-.6 0-.86-.24-.86-.98 0-.98.92-6.58 1.61-10.45m8.3.03c.15-.86.48-1.16 1.64-1.31l.24-1.16s-1.55.21-2.56.21-2.77-.09-2.77-.09l-.33 1.13.03.09s.51-.03.8-.03c.69 0 .8.24.72 1.25l-.95 7.62c-.06.3-.09.63-.06.92-.03 2.68 1.61 4.17 4.64 4.17 3.72 0 6.04-1.85 6.46-5.15l.95-7.68c.12-.92.39-1.1 1.73-1.28l.27-1.16s-1.4.21-2.44.21c-.89 0-2.65-.09-2.65-.09l-.3 1.13.03.09s.68-.03.98-.03c.65 0 .74.18.68 1.25 0 0-.62 5.89-.83 7.5-.27 2.44-1.73 3.72-4.17 3.72-2.08 0-3.19-1.22-3.19-3.42 0-.33 0-.71.06-1.1l1.01-6.79zm20.21 12.8c1.99-4.17 3.99-8.25 5.81-11.97h.15s-.36 8.72-.45 9.56c-.12.68-.57 1.04-1.52 1.16l-.27 1.16c.06 0 1.73-.18 2.68-.18.89 0 2.23.06 2.23.06l.36-1.13s-.03-.06-.03-.09c0 0-.39.03-.65.03-.77 0-.95-.42-.89-2.2.06-3.13.36-8.52.45-9.29.06-.77.57-1.1 1.93-1.25l.24-.98s-.03-.06-.03-.09c0 0-1.79.12-2.53.12-.57.03-1.67-.09-1.82-.03-2.8 6.31-5.09 11.05-5.09 11.05h-.12s-1.31-4.67-2.53-11.11c0 0-1.04.12-1.79.12s-2.65-.12-2.65-.12l-.27.92.06.12c1.31.09 1.85.42 1.85 1.07 0 .57-1.79 8.43-2.11 10.06-.3 1.22-.71 1.64-1.7 1.76l-.27 1.16s1.16-.18 2.08-.18c.77 0 2.38.09 2.38.09l.39-1.16s-.06-.03-.06-.06h-.92c-.45 0-.65-.18-.65-.57 0-.45 1.93-10 1.93-10h.15c.92 3.87 1.88 7.86 2.86 12.12l.8-.15zm-132.96 49.8c.21-1.13.62-1.49 2.08-1.7l.24-1.28s-2.11.27-3.45.27c-.98 0-2.71-.09-2.68-.12l-.39 1.28.06.09s.63-.06.98-.06c.83 0 1.07.33.86 1.61l-.71 5.56c-1.73.21-2.86.3-4.32.3-1.61 0-3.25-.03-4.85-.03l.77-4.9c.33-2.15.51-2.48 2.23-2.75l.24-1.25s-1.79.27-2.98.27c-1.1 0-3.16-.12-3.16-.12l-.36 1.28.06.09s.62-.06.95-.06c.86 0 1.01.33.86 1.61l-1.43 11.67c-.24 2.47-.54 3.13-2.71 3.57l-.33 1.28c.06-.15 2.74-.36 4.41-.36.98 0 2.32.06 2.32.09l.42-1.31s-.03-.09-.03-.12c0 0-.75.09-1.31.09-.72 0-.95-.15-1.04-.74-.12-.65.15-2.06.3-3.16l.51-3.57s3.93-.33 4.82-.33c1.34 0 4.41.03 4.41.03l-.54 4.59c-.33 2.68-.83 3.18-2.59 3.22l-.39 1.28s1.16-.06 2.23-.06h.92c1.25 0 3.54.09 3.54.09l.39-1.31v-.09s-.74.09-1.31.09c-.77 0-1.07-.3-1.07-1.28 0-1.25 1.13-8.31 2.03-13.78v.02zm8.63 3.72c.15-.86.48-1.16 1.64-1.31l.24-1.16s-1.55.21-2.56.21-2.77-.09-2.77-.09l-.33 1.13.03.09s.51-.03.8-.03c.68 0 .8.24.71 1.25l-.95 7.62c-.06.3-.09.63-.06.92-.03 2.68 1.61 4.17 4.65 4.17 3.72 0 6.04-1.85 6.46-5.15l.95-7.68c.12-.92.39-1.1 1.73-1.28l.27-1.16s-1.4.21-2.44.21c-.89 0-2.65-.09-2.65-.09l-.3 1.13.03.09s.68-.03.98-.03c.65 0 .74.18.68 1.25 0 0-.62 5.9-.83 7.5-.27 2.44-1.73 3.72-4.17 3.72-2.08 0-3.19-1.22-3.19-3.42 0-.33 0-.71.06-1.1l1.01-6.79zm23.52 8.72s-3.16-5.33-6.19-11.11c0 0-.86.12-1.7.12-.77 0-2.17-.12-2.17-.12l-.27.95c0 .06.03.09.06.15 1.55.15 1.96.48 1.85 1.43l-1.55 9.94c-.12.95-.63 1.34-1.61 1.46l-.3 1.16s1.37-.18 2.38-.18 2.59.09 2.59.09l.36-1.13-.09-.09h-1.13c-.57 0-.74-.24-.65-.95l1.28-9.29h.15s3.28 5.48 6.82 12.24l1.07-.33 1.91-12.89c.15-.89.68-1.31 1.79-1.46l.24-1.19s-1.43.21-2.44.21c-.83 0-2.38-.12-2.38-.12l-.36 1.13.06.12s.48-.03.86-.03c.51 0 .75.33.66 1.01l-1.1 8.87h-.12zm12.33 4.08c3.07 0 5.21-1.04 5.21-1.04l.18-.21s-.03-.48-.03-.71c0-.45.21-2.06.36-2.92.15-1.07.51-1.73.98-2.02l-.03-.6s-1.07.12-2.08.12c-1.37 0-3.04-.06-3.01-.06l-.39 1.22.06.12h1.55c1.01 0 1.19.21 1.07 1.22l-.33 2.74s-1.28.83-3.1.83c-2.74 0-4.35-2.14-4.35-5.48 0-4.32 2.35-7.06 5.75-7.06 2.05 0 3.04.62 3.04 1.85 0 .48-.21 1.4-.21 1.4l1.31-.12c.45-2.17 1.13-3.9 1.13-3.9l-.09-.18s-2.41-.56-4.35-.56c-5.21 0-9.05 3.9-9.05 9.2 0 3.81 2.53 6.16 6.37 6.16m16.36-12.65h.21l1.01 5.87c-.54.06-1.49.12-2.08.12h-1.97zm4.08 9.65c-1.07-4.91-2.2-12.33-2.2-12.33l-.21-.03-1.99.42-5.87 11.82c-.62 1.25-1.13 1.64-2 1.73l-.33 1.19s1.49-.06 2.65-.06c1.55 0 3.28.15 3.28.15l.24-1.1v-.09h-1.28c-.86 0-1.22-.24-1.22-.77 0-.27.09-.54.33-.98l1.07-2.29c.51-.06 1.64-.18 2.5-.18.63 0 1.85.03 2.38.03l.39 2.35c.06.3.09.62.09.83 0 .77-.42.98-2.14 1.1l-.21 1.01.06.15s1.79-.21 3.6-.21c.86 0 2.59.06 2.59.06l.27-1.04-.06-.09c-1.25-.12-1.7-.48-1.94-1.67m8.48-4.99c.21-1.54.39-3.03.86-5.46.12-.42.21-.54.51-.54 2.53 0 3.78.89 3.78 2.56 0 2.89-2.74 3.63-2.83 3.69zm1.88 1.47 1.85 4.44c.6 1.34 1.4 2.17 2.26 2.17l2.17-.24.24-.89-.09-.12c-1.22 0-1.88-.54-2.62-1.99l-1.96-3.87c2.5-1.07 3.75-2.83 3.75-4.85s-1.91-3.31-4.73-3.31c0 0-1.96.12-2.8.12-.89 0-2.65-.09-2.65-.09l-.33 1.1.09.12s.51-.03.77-.03c.65 0 .8.24.68 1.22l-1.19 9.56c-.15 1.34-.54 1.66-1.99 1.81l-.36 1.19s1.64-.12 2.86-.09c1.07 0 2.62.06 2.62.06l.33-1.07-.03-.09c-1.52-.03-1.7-.24-1.46-1.9l.48-3.27h2.11zm14.08-6.31c.15-.86.51-1.13 1.79-1.28l.27-1.19s-1.79.24-2.86.24c-.98 0-2.77-.09-2.89-.09l-.3 1.1c0 .06.03.09.03.12 0 0 .62-.03.95-.03.71 0 .83.27.71 1.22l-1.19 9.59c-.15 1.28-.62 1.73-2.08 1.99l-.3 1.16s1.64-.27 2.86-.27c1.1 0 3.16.06 3.16.06l.36-1.16-.06-.09s-.63.06-1.19.06c-.6 0-.86-.24-.86-.98 0-.98.92-6.58 1.61-10.45m10.17 12.83c2.83 0 4.76-.92 4.76-.92l.18-.24c.36-1.7 1.07-3.9 1.07-3.9l-1.37.12c-.86 2.47-2.2 3.57-4.23 3.57-2.71 0-4.32-2.11-4.32-5.45 0-4.29 2.29-7 5.66-7 2.02 0 3.01.62 3.01 1.88 0 .45-.21 1.43-.21 1.43l1.37-.12c.42-2.2 1.1-3.99 1.1-3.99l-.09-.18s-2.41-.56-4.35-.56c-5.24 0-9.02 3.84-9.02 9.14 0 3.84 2.56 6.22 6.43 6.22m13.47-12.8c.15-.86.48-1.16 1.64-1.31l.24-1.16s-1.55.21-2.56.21-2.77-.09-2.77-.09l-.33 1.13.03.09s.51-.03.8-.03c.69 0 .81.24.72 1.25l-.95 7.62c-.06.3-.09.63-.06.92-.03 2.68 1.61 4.17 4.65 4.17 3.72 0 6.04-1.85 6.46-5.15l.95-7.68c.12-.92.39-1.1 1.73-1.28l.27-1.16s-1.4.21-2.44.21c-.89 0-2.65-.09-2.65-.09l-.3 1.13.03.09s.68-.03.98-.03c.65 0 .74.18.68 1.25 0 0-.62 5.9-.83 7.5-.27 2.44-1.73 3.72-4.17 3.72-2.08 0-3.19-1.22-3.19-3.42 0-.33 0-.71.06-1.1zm20.22 12.8c1.99-4.17 3.99-8.25 5.81-11.97h.15s-.36 8.72-.45 9.56c-.12.69-.57 1.04-1.52 1.16l-.27 1.16c.06 0 1.73-.18 2.68-.18.89 0 2.23.06 2.23.06l.36-1.13s-.03-.06-.03-.09c0 0-.39.03-.65.03-.77 0-.95-.42-.89-2.2.06-3.13.36-8.52.45-9.29.06-.77.57-1.1 1.94-1.25l.24-.98s-.03-.06-.03-.09c0 0-1.79.12-2.53.12-.57.03-1.67-.09-1.82-.03-2.8 6.31-5.09 11.05-5.09 11.05h-.12s-1.31-4.67-2.53-11.11c0 0-1.04.12-1.79.12s-2.65-.12-2.65-.12l-.27.92.06.12c1.31.09 1.85.42 1.85 1.07 0 .57-1.79 8.43-2.11 10.06-.3 1.22-.71 1.64-1.7 1.76l-.27 1.16s1.16-.18 2.08-.18c.77 0 2.38.09 2.38.09l.39-1.16s-.06-.03-.06-.06h-.92c-.45 0-.65-.18-.65-.57 0-.45 1.93-10 1.93-10h.15c.92 3.87 1.88 7.86 2.86 12.12l.8-.15zm-160.5-33.13c4.41 0 7.44-2.68 7.44-6.16 0-2.89-3.54-4.2-5.92-5.81-1.22-.86-2.17-1.76-2.17-3.04 0-1.82 1.79-3.19 4.05-3.19s3.13.57 3.13 2.2c0 .89-.33 2.2-.33 2.2l.15.15 1.07-.12c.51-2.74 1.22-5.03 1.22-5.03l-.06-.15s-2-.71-4.53-.71c-3.9 0-6.91 2.65-6.91 5.9 0 2.56 2.53 3.87 4.73 5.18 1.7 1.01 3.16 2.06 3.16 3.63 0 2.17-1.85 3.63-4.47 3.63-3.13 0-3.63-.86-3.1-5.3l-1.22.15c-.36 2.95-1.01 5.18-1.01 5.18l.12.3s1.96.98 4.65.98m14.85-13.39c0-.54.33-.74 1.82-.86l.21-.92-.06-.18s-2.14.21-3.45.21c-1.04 0-2.65-.09-2.65-.09l-.3 1.01.06.12c1.76.21 1.88.8 2.56 2.59l1.61 4.29c.45 1.1.45 1.7.36 2.59l-.09.95c-.18 1.67-.45 2.11-2.2 2.44l-.3 1.16s1.73-.27 2.95-.27c1.04 0 3.16.09 3.16.09l.33-1.19-.03-.09s-.68.06-1.16.06c-.86 0-1.01-.39-.83-1.58.33-2.35.36-3.1.98-3.96l2.8-4.08c1.49-2.11 1.82-2.68 3.4-3.01l.3-.98-.09-.15s-1.28.09-2.23.09c-.89 0-2.56-.18-2.68-.18l-.3 1.01.06.12c.92.06 1.34.24 1.34.6 0 .3-.21.74-.51 1.19l-3.1 4.71h-.15c-.03-.12-1.79-4.91-1.79-5.69m17.73 13.31c1.99-4.17 3.99-8.25 5.81-11.97h.15s-.36 8.72-.45 9.56c-.12.68-.57 1.04-1.52 1.16l-.27 1.16c.06 0 1.73-.18 2.68-.18.89 0 2.23.06 2.23.06l.36-1.13s-.03-.06-.03-.09c0 0-.39.03-.65.03-.77 0-.95-.42-.89-2.2.06-3.13.36-8.51.45-9.29.06-.77.57-1.1 1.94-1.25l.24-.98s-.03-.06-.03-.09c0 0-1.79.12-2.53.12-.57.03-1.67-.09-1.82-.03-2.8 6.31-5.09 11.05-5.09 11.05h-.12s-1.31-4.67-2.53-11.11c0 0-1.04.12-1.79.12s-2.65-.12-2.65-.12l-.27.92.06.12c1.31.09 1.85.42 1.85 1.07 0 .57-1.79 8.43-2.11 10.06-.3 1.22-.71 1.64-1.7 1.76l-.27 1.16s1.16-.18 2.08-.18c.77 0 2.38.09 2.38.09l.39-1.16s-.06-.03-.06-.06h-.92c-.45 0-.65-.18-.65-.57 0-.45 1.93-10 1.93-10h.15c.92 3.87 1.88 7.86 2.86 12.12l.8-.15zm16.7-7.35c.3-2.11.65-4.32 1.04-6.16.03-.33.03-.36.63-.36 2.62 0 3.84.89 3.84 2.8 0 2.26-1.1 3.69-3.19 4.05zm-2.95-6.7.09.12s.51-.03.77-.03c.65 0 .8.24.68 1.25l-1.19 9.56c-.15 1.31-.54 1.67-1.9 1.91l-.3 1.16c.03-.06 2.32-.18 3.6-.18.74 0 2.29.06 2.29.06l.36-1.16s-.03-.06-.03-.09c0 0-.8.06-1.25.06-.8 0-1.07-.3-.92-1.25l.48-3.18h2.23c3.04 0 5.83-2.74 5.83-5.72 0-2.2-1.73-3.63-4.91-3.63 0 0-2.17.12-2.86.12-.92 0-2.56-.09-2.65-.09l-.33 1.1z" fill="#13100d"/><path d="m210.95 172.6c.15-.86.48-1.13 1.7-1.31l.21-1.16s-1.82.21-2.92.24c-.8 0-2.5-.06-2.5-.09l-.3 1.1.06.12s.48-.03.77-.03c.68 0 .86.24.71 1.22l-.54 4.08c-1.28.15-2.17.21-3.33.21-1.25 0-2.5-.03-3.75-.03l.6-3.63c.27-1.55.42-1.82 1.79-2l.21-1.19s-1.7.24-2.74.24c-.89 0-2.62-.09-2.62-.09l-.33 1.1.09.12s.48-.03.74-.03c.71 0 .83.24.71 1.22l-1.1 8.93c-.18 1.82-.42 2.32-2.14 2.65l-.3 1.16c.06-.12 2.29-.27 3.66-.27.83 0 2.14.06 2.14.06l.36-1.16s-.03-.06-.03-.09c0 0-.57.06-1.04.06-.57 0-.74-.12-.83-.6s.12-1.46.21-2.23l.39-2.71s3.1-.24 3.81-.24h3.34l-.42 3.39c-.24 1.97-.65 2.38-2.05 2.41l-.33 1.13s1.19-.03 2.08-.03h.8c1.1 0 2.92.06 2.92.06l.33-1.16-.03-.09s-.57.06-1.01.06c-.62 0-.86-.24-.86-1.01 0-.95.89-6.52 1.55-10.42" fill="#1d1d1b"/><path d="m220.69 185.43c4.85 0 8.66-3.99 8.66-9.14 0-3.72-2.47-6.22-6.1-6.22-4.82 0-8.54 3.99-8.54 9.14 0 3.75 2.44 6.22 5.99 6.22m.62-1.37c-2.53 0-4.2-2.08-4.2-5.39 0-4.14 2.29-7.03 5.42-7.03 2.59 0 4.29 2.11 4.29 5.39 0 4.2-2.29 7.03-5.51 7.03m21.76-2.71s-3.16-5.33-6.19-11.11c0 0-.86.12-1.7.12-.77 0-2.17-.12-2.17-.12l-.27.95c0 .06.03.09.06.15 1.55.15 1.96.48 1.85 1.43l-1.55 9.94c-.12.95-.63 1.34-1.61 1.46l-.3 1.16s1.37-.18 2.38-.18 2.59.09 2.59.09l.36-1.13-.09-.09h-1.13c-.57 0-.74-.24-.65-.95l1.28-9.29h.15s3.28 5.48 6.82 12.24l1.07-.33 1.91-12.89c.15-.89.68-1.31 1.79-1.46l.24-1.19s-1.43.21-2.44.21c-.83 0-2.38-.12-2.38-.12l-.36 1.13.06.12s.48-.03.86-.03c.51 0 .74.33.65 1.01l-1.1 8.87h-.12zm11.37-8.75c.15-.86.51-1.13 1.79-1.28l.27-1.19s-1.79.24-2.86.24c-.98 0-2.77-.09-2.89-.09l-.3 1.1c0 .06.03.09.03.12 0 0 .62-.03.95-.03.71 0 .83.27.71 1.22l-1.19 9.59c-.15 1.28-.63 1.73-2.09 1.99l-.3 1.16s1.64-.27 2.86-.27c1.1 0 3.16.06 3.16.06l.36-1.16-.06-.09s-.63.06-1.19.06c-.6 0-.86-.24-.86-.98 0-.98.92-6.58 1.61-10.45m10.19 12.83c2.83 0 4.76-.92 4.76-.92l.18-.24c.36-1.7 1.07-3.9 1.07-3.9l-1.37.12c-.86 2.47-2.2 3.57-4.23 3.57-2.71 0-4.32-2.11-4.32-5.45 0-4.29 2.29-7 5.66-7 2.02 0 3.01.62 3.01 1.88 0 .45-.21 1.43-.21 1.43l1.37-.12c.42-2.2 1.1-3.99 1.1-3.99l-.09-.18s-2.41-.57-4.35-.57c-5.24 0-9.02 3.84-9.02 9.14 0 3.84 2.56 6.22 6.43 6.22m13.46-12.79c.15-.86.48-1.16 1.64-1.31l.24-1.16s-1.55.21-2.56.21-2.77-.09-2.77-.09l-.33 1.13.03.09s.51-.03.8-.03c.68 0 .8.24.71 1.25l-.95 7.62c-.06.3-.09.63-.06.92-.03 2.68 1.61 4.17 4.64 4.17 3.72 0 6.04-1.85 6.46-5.15l.95-7.68c.12-.92.39-1.1 1.73-1.28l.27-1.16s-1.4.21-2.44.21c-.89 0-2.65-.09-2.65-.09l-.3 1.13.03.09s.68-.03.98-.03c.65 0 .74.18.68 1.25 0 0-.62 5.89-.83 7.5-.27 2.44-1.73 3.72-4.17 3.72-2.08 0-3.19-1.22-3.19-3.42 0-.33 0-.71.06-1.1l1.01-6.79zm20.22 12.8c1.99-4.17 3.99-8.25 5.81-11.97h.15s-.36 8.72-.45 9.56c-.12.68-.57 1.04-1.52 1.16l-.27 1.16c.06 0 1.73-.18 2.68-.18.89 0 2.23.06 2.23.06l.36-1.13s-.03-.06-.03-.09c0 0-.39.03-.65.03-.77 0-.95-.42-.89-2.2.06-3.13.36-8.51.45-9.29.06-.77.57-1.1 1.94-1.25l.24-.98s-.03-.06-.03-.09c0 0-1.79.12-2.53.12-.57.03-1.67-.09-1.82-.03-2.8 6.31-5.09 11.05-5.09 11.05h-.12s-1.31-4.67-2.53-11.11c0 0-1.04.12-1.79.12s-2.65-.12-2.65-.12l-.27.92.06.12c1.31.09 1.85.42 1.85 1.07 0 .57-1.79 8.43-2.11 10.06-.3 1.22-.71 1.64-1.7 1.76l-.27 1.16s1.16-.18 2.08-.18c.77 0 2.38.09 2.38.09l.39-1.16s-.06-.03-.06-.06h-.92c-.45 0-.65-.18-.65-.57 0-.45 1.93-10 1.93-10h.15c.92 3.87 1.88 7.86 2.86 12.12l.8-.15z" fill="#13100d"/><g fill-rule="evenodd"><path d="m97.37 11.51c-.69 1.02-2.25 7.27-2.7 8.92-2.53 9.36-4.07 20.39-5.38 30.17-1.04 6.87-1.57 13.12-2.26 19.61-1.71 15.91-2.64 32.9-3.43 48.87-.49 1.34-1.36 38.97-1.14 42.96 0 1.32.04 1.48.07 2.67l1.27 41.33c.46 5.8 1.76 20.99 4.08 25.11.47-1.54-.23-5.82-.35-7.83l-1.83-64.92c-.01-1.55-.04-2.31-.02-3.76.02-2.75.08-5 .08-7.72l.93-37.77v-1.59c-.1-2.88.12-1.55.16-2.91.03-1-.2-.52.2-1.51.23-3.82.34-7.92.61-11.79.8-11.75 1.56-23.15 2.78-34.8 1.73-16.53 3.47-29.2 7.48-45.4l.14-.65c-.3.28-.42.48-.69 1.01"/><path d="m89.18 26.81c-.23 1.08-.33 1.84-.57 2.87-2.29 9.6-4.22 25.21-5.59 35.11-.86 6.24-1.23 11.64-1.9 17.55-.85 7.42-1.43 15.76-2.05 23.38-.18 2.21-.19 3.83-.4 6.02l-1 17.64-.49 44.45 2.52 26.62c.19.59.35.77.35 1.47l.9-.15-.26-1.7c-.02-.8-.04-.91-.1-1.66-.08-1.03-.02-2-.1-3.15l-.58-25.75c-.03-2.14-.01-3.93-.01-6.26 0-2.23.04-4.07.03-6.47l2.01-57.19c-.34-1.24-.19.09-.01-1.9l.05-1.24v-.21l2.82-31.35 1.6-13.09c.67-5.46 1.88-14.56 2.95-19.74 1.3-6.29 2-11.27 3.74-17.99.18-.69.51-1.71.67-2.46.02-.66-.04-.4-.5.24-.43.29-3.65 13.38-4.07 14.98"/><path d="m93.7 57.53 1.98-22.24c1.91-.24 1.37-.64 3.73 0-1.67 21.54-3.32 37.92-3.69 56.7 2.94 2.17 11.37 3.1 22.67 12.45 1.66 1.38 3.08 3.02 4.54 4.57l.24.26s.08.1.11.14l1.99 2.78c4.71 6.78 7.6 14.1 7.99 23.28.25 5.96-.52 12.5-1.92 18.14-2.64 10.63-19.66 22.67-14.46 32.99 2.56 5.07 9.22 7.75 14.37 5.21-.64 1.93-1.18 2.03-1.29 4.71-.07 1.92.32 3.71.7 5.3.76 3.21 1.96 5.99 2.81 9.12 4.34 16.04 1.21 29.18-10.74 40.24-1.81 1.67-8.59 6.9-10.78 6.93 1.19.15 6.75-5.75 7.93-7.38.34-.47.43-.69.71-1.05l4.49-7.03c4.26-8.24 5.94-18.82 3.21-27.83-1.43-4.73-3.32-9.31-6.13-13.12-.76-1.03-1.1-1.47-1.69-2.36-2.06-3.07-4.4-5.12-6.37-9.17-3.1-6.39-3.49-11.67-.25-18.1 1.82-3.61 3.9-6.58 5.96-9.85 8.9-14.16 10.58-31.25 2.32-45.9-2.17-3.82-5.33-8.26-9.96-11.48-3.77-2.86-7.33-4.23-7.33-4.23-5.99-3.34-8.61 2.58-8.86 3.86-.94 4.93-4.41 18.63-6.91 29.18l.83-27.76 1.55-22.57 2.27-25.8z" fill="#13100d"/><path d="m60.87 213.48c-.06 1.94-.29 4.63-.66 7.09-.38 2.46-.92 4.69-1.37 6.31s-.81 2.63-1.4 4.08-1.42 3.33-2.43 5.23c-1 1.89-2.18 3.8-3.46 5.62s-2.65 3.56-3.85 5.06-2.22 2.77-2.66 3.37-.3.53 1.2-.62 4.35-3.39 6.72-5.61 4.24-4.41 5.94-6.71 3.23-4.7 4.48-7.11 2.23-4.83 2.92-6.9c.7-2.07 1.11-3.78 1.46-5.62.34-1.83.61-3.79.74-5.66.14-1.87.14-3.67 0-5.66s-.43-4.17-.84-6.16-.93-3.8-1.61-5.61c-.68-1.8-1.51-3.61-2.58-5.41-1.07-1.81-2.38-3.62-3.72-5.36s-2.71-3.41-3.63-4.65c-.91-1.24-1.37-2.04-1.83-3.13s-.93-2.46-1.24-3.8a20.14 20.14 0 0 1 -.5-3.91c-.04-1.26.03-2.48.23-3.76.19-1.29.51-2.65.97-4.07s1.06-2.91 1.72-4.28c.66-1.36 1.38-2.6 1.78-3.29.4-.68.48-.8.91-1.38s1.21-1.61 2.04-2.59 1.71-1.91 2.65-2.81c.95-.9 1.97-1.78 3.09-2.64s2.32-1.69 3.44-2.39 2.15-1.24 2.92-1.59 1.26-.5 1.24-.56c-.03-.06-.57-.02-1.04.02-.46.04-.84.09-1.29.16-.44.08-.96.18-1.58.35s-1.34.41-2.23.81-1.94.95-2.97 1.56-2.04 1.28-3.07 2.03-2.07 1.6-3.17 2.59c-1.1 1-2.27 2.15-3.37 3.39a41.292 41.292 0 0 0 -5.63 7.98c-.73 1.36-1.33 2.69-1.81 3.91a24.02 24.02 0 0 0 -1.1 3.67c-.3 1.33-.55 2.87-.68 4.28s-.14 2.69-.02 4.1.36 2.94.68 4.37c.33 1.43.74 2.75 1.2 3.98.47 1.22 1 2.35 1.69 3.57.69 1.23 1.55 2.56 2.21 3.59.66 1.04 1.12 1.78 1.45 2.8.32 1.02.51 2.33.11 3.34s-1.4 1.72-1.26 2.04 1.42.25 2.71.85 2.6 1.86 3.52 3.12 1.47 2.51 1.88 3.79.69 2.57.88 3.82.28 2.46.22 4.4" fill="#878787"/><path d="m63.4 226.04c-.74.02-3.96-.45-6.87-1.02s-5.51-1.24-7.92-1.99a63.95 63.95 0 0 1 -6.91-2.55c-2.27-.98-4.58-2.13-6.78-3.4s-4.28-2.66-6.36-4.28a69.883 69.883 0 0 1 -5.78-5.06 47.64 47.64 0 0 1 -3.92-4.29c-1.1-1.37-2.12-2.77-3.08-4.13s-1.85-2.68-2.62-4.12c-.78-1.44-1.43-3.02-2.03-4.62s-1.15-3.24-1.57-4.95-.71-3.5-.88-5.31-.22-3.64-.13-5.4c.09-1.77.33-3.47.69-5.28.36-1.8.85-3.69 1.43-5.37s1.26-3.14 2.08-4.94 1.77-3.93 3.09-6.11c1.32-2.19 3-4.43 4.78-6.44s3.65-3.78 5.41-5.43c1.77-1.64 3.43-3.16 5.23-4.59 1.81-1.43 3.76-2.76 5.79-3.96s4.14-2.25 6.37-3.23 4.59-1.88 6.89-2.61 4.56-1.29 6.71-1.69c2.15-.41 4.2-.66 5.44-.81 1.23-.16 1.65-.21.77.04-.88.26-3.06.84-5.01 1.51s-3.68 1.43-5.49 2.27-3.71 1.77-5.66 2.88-3.96 2.4-5.89 3.9c-1.94 1.5-3.81 3.21-5.53 4.88-1.73 1.67-3.31 3.29-4.92 5.2a49.41 49.41 0 0 0 -4.88 6.88c-1.64 2.78-3.28 6.14-4.37 8.67-1.09 2.54-1.61 4.25-2 6.08s-.65 3.79-.79 5.89-.16 4.34.1 6.44c.25 2.1.78 4.06 1.34 6.09s1.16 4.14 2.21 6.42 2.56 4.72 4.02 7 2.89 4.39 4.47 6.41c1.59 2.01 3.34 3.93 5.03 5.56s3.32 2.98 5.04 4.24a65.06 65.06 0 0 0 5.42 3.57c1.9 1.12 3.89 2.18 5.72 3.07 1.83.88 3.49 1.59 4.9 2.15s2.57.96 4.01 1.42c1.45.46 3.19.98 2.45 1" fill="#878787"/></g></g></svg>